# xmcd
#
# Track frame offsets: 
#        150
#        19527
#        38759
#        42786
#        62864
#        82874
#        102160
#        123082
#        139576
#        158989
#        162393
#        181732
#        205375
#
# Disc length: 3056 seconds
#
# Revision: 0
# Processed by: cddbd v1.5.2PL0 Copyright (c) Steve Scherf et al.
# Submitted via: ExactAudioCopyFreeDBPlugin 1.0
#
DISCID=9d0bee0d
DTITLE=Marcus Eaton - Versions of the Truth
DYEAR=2017
DGENRE=Easy Listening
TTITLE0=Up and Over
TTITLE1=Flying through the Fire
TTITLE2=Shade
TTITLE3=I will be your Shade
TTITLE4=Better Way
TTITLE5=Invisible to You
TTITLE6=Reverie
TTITLE7=Barbie
TTITLE8=Picture of Us
TTITLE9=Sunrise
TTITLE10=Sunrise lets You down
TTITLE11=The Sting
TTITLE12=Calm Beneath
EXTD=
EXTT0=
EXTT1=
EXTT2=
EXTT3=
EXTT4=
EXTT5=
EXTT6=
EXTT7=
EXTT8=
EXTT9=
EXTT10=
EXTT11=
EXTT12=
PLAYORDER=
